<?xml version="1.0" encoding="utf-8"?>
<!-- Generator: Adobe Illustrator 26.4.1, SVG Export Plug-In . SVG Version: 6.00 Build 0)  -->
<svg version="1.1" id="Layer_1" xmlns="http://www.w3.org/2000/svg" xmlns:xlink="http://www.w3.org/1999/xlink" x="0px" y="0px"
	 viewBox="0 0 90 80" style="enable-background:new 0 0 90 80;" xml:space="preserve">
<style type="text/css">
	.st0{fill:none;stroke:#231F20;stroke-width:3;stroke-miterlimit:10;}
	.st1{fill:#231F20;stroke:#231F20;stroke-width:2;stroke-miterlimit:10;}
</style>
<path class="st0" d="M2.4,1.8l12.1,6.8c5.5,3.1,9.3,8.6,10.2,14.9l4.1,28.7c0.6,4.3,4.2,7.4,8.5,7.4h34.5c3.6,0,6.8-2.5,7.6-6.1
	l6.8-29.8c0.5-2.3-1.3-4.4-3.6-4.4l-58.3,2"/>
<path d="M24.7,23.4l4.1,28.7c0.6,4.3,4.2,7.4,8.5,7.4h34.5c3.6,0,6.8-2.5,7.6-6.1l6.8-29.8c0.5-2.3-1.3-4.4-3.6-4.4l-58.3,2"/>
<circle class="st1" cx="41.5" cy="71.5" r="6.8"/>
<circle class="st1" cx="67.4" cy="71.5" r="6.8"/>
</svg>
